<?xml version="1.0" encoding="utf-8"?>
<!-- Generator: Adobe Illustrator 16.0.0, SVG Export Plug-In . SVG Version: 6.00 Build 0)  -->
<!DOCTYPE svg PUBLIC "-//W3C//DTD SVG 1.1//EN" "http://www.w3.org/Graphics/SVG/1.1/DTD/svg11.dtd">
<svg version="1.1" xmlns="http://www.w3.org/2000/svg" xmlns:xlink="http://www.w3.org/1999/xlink" x="0px" y="0px"
	 width="177.003px" height="88.002px" viewBox="0 0 177.003 88.002" enable-background="new 0 0 177.003 88.002"
	 xml:space="preserve">
<g id="Layer_2" display="none">
	<rect x="-60" y="-6" display="inline" fill="#EB7077" width="701" height="788"/>
</g>
<g id="Layer_1">
	<g enable-background="new    ">
		<g enable-background="new    ">
			<defs>
				<ellipse id="SVGID_1_" enable-background="new    " cx="844.667" cy="44.001" rx="0" ry="44.001"/>
			</defs>
			<clipPath id="SVGID_2_">
				<use xlink:href="#SVGID_1_"  overflow="visible"/>
			</clipPath>
		</g>
		<g enable-background="new    ">
			<defs>
				<ellipse id="SVGID_3_" enable-background="new    " cx="-581.333" cy="44.001" rx="0" ry="44.001"/>
			</defs>
			<clipPath id="SVGID_4_">
				<use xlink:href="#SVGID_3_"  overflow="visible"/>
			</clipPath>
			<g clip-path="url(#SVGID_4_)">
				<g>
					<g>
						<g>
							<polyline fill="none" stroke="#000000" stroke-width="0.25" stroke-miterlimit="10" points="-581.333,-65.502 
								-581.333,-30.501 -581.333,4.5 -581.333,-30.501 -581.333,-65.502 							"/>
							<polyline fill="none" stroke="#000000" stroke-width="0.25" stroke-miterlimit="10" points="-581.333,9 -581.333,44.001 
								-581.333,79.002 -581.333,44.001 -581.333,9 							"/>
							<polyline fill="none" stroke="#000000" stroke-width="0.25" stroke-miterlimit="10" points="-581.333,83.502 
								-581.333,118.503 -581.333,153.504 -581.333,118.503 -581.333,83.502 							"/>
						</g>
					</g>
				</g>
			</g>
		</g>
		<g enable-background="new    ">
			<defs>
				<path id="SVGID_5_" enable-background="new    " d="M-581.333,0h1426c0,0,0,19.701,0,44.001c0,24.3,0,44.001,0,44.001h-1426
					c0,0,0-19.701,0-44.001C-581.333,19.701-581.333,0-581.333,0z"/>
			</defs>
			<clipPath id="SVGID_6_">
				<use xlink:href="#SVGID_5_"  overflow="visible"/>
			</clipPath>
		</g>
		<g enable-background="new    ">
			<defs>
				<path id="SVGID_7_" enable-background="new    " d="M-581.333,88.002c0,0,0-19.701,0-44.001c0-24.3,0-44.001,0-44.001h1426
					c0,0,0,19.701,0,44.001c0,24.3,0,44.001,0,44.001C416.866,88.002-153.533,88.002-581.333,88.002z"/>
			</defs>
			<clipPath id="SVGID_8_">
				<use xlink:href="#SVGID_7_"  overflow="visible"/>
			</clipPath>
			<g clip-path="url(#SVGID_8_)">
				<g id="XMLID_1_">
					<g>
						<path fill="#EB7077" d="M151.533,47.164h25.47c-8.92,3-11.7,8.87-13.29,25.73c-1.13,12.02-6.64,15.11-6.64,15.11
							c-4.13,0-8.19-17.42-11.7-35.82C146.893,49.264,148.823,47.614,151.533,47.164z"/>
						<path fill="#EB7077" d="M157.073,88.004h-25.47c4.53,0,7.66-8.65,9.48-19.59c1.23-7.37,2.46-12.73,4.29-16.23
							C148.883,70.584,152.943,88.004,157.073,88.004z"/>
						<path fill="#F6A2AD" d="M145.373,52.184c-1.83,3.5-3.06,8.86-4.29,16.23c-1.82,10.94-4.95,19.59-9.48,19.59
							c-4.92-1.09-8.69-19.55-13.89-47.61c-0.16-0.87-0.32-1.74-0.49-2.61c3.86-20.33,7.95-37.78,12.07-37.78h1.34
							c4.91,1.08,8.68,19.55,13.88,47.6C144.793,49.134,145.083,50.664,145.373,52.184z"/>
						<path fill="#EB7077" d="M105.153,0.004h24.14c-4.12,0-8.21,17.45-12.07,37.78C113.633,18.684,109.433,0.004,105.153,0.004z"/>
						<path fill="#EB7077" d="M117.223,37.784c-0.38,2.05-0.77,4.13-1.15,6.22c-5.79,31.61-9.25,43.12-13.22,44
							c-4.48,0-8.87-20.42-12.57-40.4c-0.06-0.32-0.12-0.64-0.18-0.96c0.17-0.88,0.33-1.76,0.49-2.65
							c5.79-31.6,9.25-43.12,13.22-43.99h1.34C109.433,0.004,113.633,18.684,117.223,37.784z"/>
						<path fill="#EB7077" d="M102.853,88.004h-25.48c4.36,0,8.69-19.54,12.73-41.36c0.06,0.32,0.12,0.64,0.18,0.96
							C93.983,67.584,98.373,88.004,102.853,88.004z"/>
						<path fill="#F6A2AD" d="M90.103,46.644c-4.04,21.82-8.37,41.36-12.73,41.36c-4.91-1.09-8.69-19.55-13.88-47.61
							c-0.16-0.88-0.33-1.75-0.49-2.63c3.86-20.32,7.95-37.76,12.06-37.76h1.34C81.253,1.074,85.003,19.134,90.103,46.644z"/>
						<path fill="#EB7077" d="M50.933,0.004h24.13c-4.11,0-8.2,17.44-12.06,37.76C59.403,18.674,55.203,0.004,50.933,0.004z"/>
						<path fill="#EB7077" d="M63.003,37.764c-0.39,2.05-0.78,4.14-1.16,6.24c-5.79,31.61-9.25,43.12-13.22,44
							c-4.48,0-2.74-0.84-5.56-13.4c-2.85-12.69-5.04-20.23-7.91-24.1c0.41-2.14,0.82-4.32,1.22-6.51
							c5.79-31.6,9.25-43.12,13.22-43.99h1.34C55.203,0.004,59.403,18.674,63.003,37.764z"/>
						<path fill="#EB7077" d="M48.623,88.004h-25.48c4.1,0,8.18-17.29,12.01-37.5c2.87,3.87,5.06,11.41,7.91,24.1
							C45.883,87.164,44.143,88.004,48.623,88.004z"/>
						<path fill="#F6A2AD" d="M35.153,50.504c-3.83,20.21-7.91,37.5-12.01,37.5c-0.48-0.59-3.31,0-5.91-15.62
							c-2.39-14.4-6.57-23.39-13.4-25.22h25.48C31.653,47.264,33.513,48.284,35.153,50.504z"/>
					</g>
					<g>
					</g>
				</g>
			</g>
		</g>
	</g>
	<path fill="none" stroke="#000000" stroke-miterlimit="10" d="M392.5,223.25"/>
	<path fill="none" stroke="#000000" stroke-miterlimit="10" d="M190.5,223.25"/>
	<line fill="none" stroke="#000000" stroke-miterlimit="10" x1="126" y1="234.167" x2="126.667" y2="235.667"/>
</g>
</svg>
