<?xml version="1.0" encoding="utf-8"?>
<!-- Generator: Adobe Illustrator 16.0.0, SVG Export Plug-In . SVG Version: 6.00 Build 0)  -->
<!DOCTYPE svg PUBLIC "-//W3C//DTD SVG 1.1//EN" "http://www.w3.org/Graphics/SVG/1.1/DTD/svg11.dtd">
<svg version="1.1" id="Layer_1" xmlns="http://www.w3.org/2000/svg" xmlns:xlink="http://www.w3.org/1999/xlink" x="0px" y="0px"
	 width="114px" height="56.7px" viewBox="0 0 114 56.7" enable-background="new 0 0 114 56.7" xml:space="preserve">
<g enable-background="new    ">
	<g enable-background="new    ">
		<defs>
			<ellipse id="SVGID_1_" enable-background="new    " cx="538.6" cy="28.3" rx="0" ry="28.2"/>
		</defs>
		<clipPath id="SVGID_2_">
			<use xlink:href="#SVGID_1_"  overflow="visible"/>
		</clipPath>
	</g>
	<g enable-background="new    ">
		<defs>
			<ellipse id="SVGID_3_" enable-background="new    " cx="-374.1" cy="28.3" rx="0" ry="28.2"/>
		</defs>
		<clipPath id="SVGID_4_">
			<use xlink:href="#SVGID_3_"  overflow="visible"/>
		</clipPath>
		<g clip-path="url(#SVGID_4_)">
			<g>
				<g>
					<g>
						<polyline fill="none" points="-374.1,-41.8 -374.1,-19.4 -374.1,3 -374.1,-19.4 -374.1,-41.8 						"/>
						<polyline fill="none" points="-374.1,5.9 -374.1,28.3 -374.1,50.7 -374.1,28.3 -374.1,5.9 						"/>
						<polyline fill="none" points="-374.1,53.5 -374.1,75.9 -374.1,98.3 -374.1,75.9 -374.1,53.5 						"/>
					</g>
				</g>
			</g>
		</g>
	</g>
	<g enable-background="new    ">
		<defs>
			<path id="SVGID_5_" enable-background="new    " d="M-374.1,0.1h912.6c0,0,0,12.6,0,28.2c0,15.6,0,28.2,0,28.2h-912.6
				c0,0,0-12.6,0-28.2C-374.1,12.7-374.1,0.1-374.1,0.1z"/>
		</defs>
		<clipPath id="SVGID_6_">
			<use xlink:href="#SVGID_5_"  overflow="visible"/>
		</clipPath>
	</g>
	<g enable-background="new    ">
		<defs>
			<path id="SVGID_7_" enable-background="new    " d="M-374.1,56.4c0,0,0-12.6,0-28.2c0-15.6,0-28.2,0-28.2h912.6
				c0,0,0,12.6,0,28.2c0,15.6,0,28.2,0,28.2C264.8,56.4-100.3,56.4-374.1,56.4z"/>
		</defs>
		<clipPath id="SVGID_8_">
			<use xlink:href="#SVGID_7_"  overflow="visible"/>
		</clipPath>
		<g clip-path="url(#SVGID_8_)">
			<g id="XMLID_1_">
				<g>
					<path fill="#EB7077" d="M95,30.3h16.3c-5.7,1.9-7.5,5.7-8.5,16.5c-0.7,7.7-4.2,9.7-4.2,9.7c-2.6,0-5.2-11.1-7.5-22.9
						C92,31.6,93.2,30.6,95,30.3z"/>
					<path fill="#EB7077" d="M98.5,56.4H82.2c2.9,0,4.9-5.5,6.1-12.5c0.8-4.7,1.6-8.1,2.7-10.4C93.3,45.3,95.9,56.4,98.5,56.4z"/>
					<path fill="#F6A2AD" d="M91,33.5c-1.2,2.2-2,5.7-2.7,10.4c-1.2,7-3.2,12.5-6.1,12.5c-3.1-0.7-5.6-12.5-8.9-30.5
						c-0.1-0.6-0.2-1.1-0.3-1.7c2.5-13,5.1-24.2,7.7-24.2h0.9c3.1,0.7,5.6,12.5,8.9,30.5C90.7,31.6,90.8,32.5,91,33.5z"/>
					<path fill="#EB7077" d="M65.3,0.1h15.4c-2.6,0-5.3,11.2-7.7,24.2C70.7,12.1,68,0.1,65.3,0.1z"/>
					<path fill="#EB7077" d="M73,24.3c-0.2,1.3-0.5,2.6-0.7,4c-3.7,20.2-5.9,27.6-8.5,28.2c-2.9,0-5.7-13.1-8-25.9
						c0-0.2-0.1-0.4-0.1-0.6c0.1-0.6,0.2-1.1,0.3-1.7C59.7,8,61.9,0.7,64.4,0.1h0.9C68,0.1,70.7,12.1,73,24.3z"/>
					<path fill="#EB7077" d="M63.8,56.4H47.5c2.8,0,5.6-12.5,8.1-26.5c0,0.2,0.1,0.4,0.1,0.6C58.1,43.4,61,56.4,63.8,56.4z"/>
					<path fill="#F6A2AD" d="M55.7,30c-2.6,14-5.4,26.5-8.1,26.5C44.4,55.7,42,43.9,38.6,26c-0.1-0.6-0.2-1.1-0.3-1.7
						c2.5-13,5.1-24.2,7.7-24.2h0.9C50,0.8,52.4,12.4,55.7,30z"/>
					<path fill="#EB7077" d="M30.6,0.1H46c-2.6,0-5.2,11.2-7.7,24.2C36,12.1,33.3,0.1,30.6,0.1z"/>
					<path fill="#EB7077" d="M38.3,24.3c-0.2,1.3-0.5,2.6-0.7,4c-3.7,20.2-5.9,27.6-8.5,28.2c-2.9,0-1.8-0.5-3.6-8.6
						c-1.8-8.1-3.2-12.9-5.1-15.4c0.3-1.4,0.5-2.8,0.8-4.2C25,8,27.2,0.7,29.7,0.1h0.9C33.3,0.1,36,12.1,38.3,24.3z"/>
					<path fill="#EB7077" d="M29.1,56.4H12.8c2.6,0,5.2-11.1,7.7-24c1.8,2.5,3.2,7.3,5.1,15.4C27.4,55.9,26.2,56.4,29.1,56.4z"/>
					<path fill="#F6A2AD" d="M20.5,32.4c-2.5,12.9-5.1,24-7.7,24c-0.3-0.4-2.1,0-3.8-10c-1.5-9.2-4.2-15-8.6-16.1h16.3
						C18.3,30.4,19.4,31,20.5,32.4z"/>
				</g>
				<g>
				</g>
			</g>
		</g>
	</g>
</g>
<path fill="none" d="M194.8,54.9"/>
<g enable-background="new    ">
	<g enable-background="new    ">
		<defs>
			<ellipse id="SVGID_9_" enable-background="new    " cx="538.6" cy="28.2" rx="0" ry="28.2"/>
		</defs>
		<clipPath id="SVGID_10_">
			<use xlink:href="#SVGID_9_"  overflow="visible"/>
		</clipPath>
	</g>
	<g enable-background="new    ">
		<defs>
			<ellipse id="SVGID_11_" enable-background="new    " cx="-374.1" cy="28.2" rx="0" ry="28.2"/>
		</defs>
		<clipPath id="SVGID_12_">
			<use xlink:href="#SVGID_11_"  overflow="visible"/>
		</clipPath>
		<g clip-path="url(#SVGID_12_)">
			<g>
				<g>
					<g>
						<polyline fill="none" points="-374.1,-41.9 -374.1,-19.5 -374.1,2.9 -374.1,-19.5 -374.1,-41.9 						"/>
						<polyline fill="none" points="-374.1,5.8 -374.1,28.2 -374.1,50.6 -374.1,28.2 -374.1,5.8 						"/>
						<polyline fill="none" points="-374.1,53.4 -374.1,75.8 -374.1,98.2 -374.1,75.8 -374.1,53.4 						"/>
					</g>
				</g>
			</g>
		</g>
	</g>
	<g enable-background="new    ">
		<defs>
			<path id="SVGID_13_" enable-background="new    " d="M-374.1,0h912.6c0,0,0,12.6,0,28.2s0,28.2,0,28.2h-912.6c0,0,0-12.6,0-28.2
				S-374.1,0-374.1,0z"/>
		</defs>
		<clipPath id="SVGID_14_">
			<use xlink:href="#SVGID_13_"  overflow="visible"/>
		</clipPath>
	</g>
	<g enable-background="new    ">
		<defs>
			<path id="SVGID_15_" enable-background="new    " d="M-374.1,56.3c0,0,0-12.6,0-28.2s0-28.2,0-28.2h912.6c0,0,0,12.6,0,28.2
				s0,28.2,0,28.2C264.8,56.3-100.3,56.3-374.1,56.3z"/>
		</defs>
		<clipPath id="SVGID_16_">
			<use xlink:href="#SVGID_15_"  overflow="visible"/>
		</clipPath>
		<g clip-path="url(#SVGID_16_)">
			<g id="XMLID_2_">
				<g>
					<path fill="#EB7077" d="M95,30.2h16.3c-5.7,1.9-7.5,5.7-8.5,16.5c-0.7,7.7-4.2,9.7-4.2,9.7c-2.6,0-5.2-11.1-7.5-22.9
						C92,31.5,93.2,30.5,95,30.2z"/>
					<path fill="#EB7077" d="M98.5,56.3H82.2c2.9,0,4.9-5.5,6.1-12.5c0.8-4.7,1.6-8.1,2.7-10.4C93.3,45.2,95.9,56.3,98.5,56.3z"/>
					<path fill="#F6A2AD" d="M91,33.4c-1.2,2.2-2,5.7-2.7,10.4c-1.2,7-3.2,12.5-6.1,12.5c-3.1-0.7-5.6-12.5-8.9-30.5
						c-0.1-0.6-0.2-1.1-0.3-1.7C75.5,11.2,78.1,0,80.7,0h0.9c3.1,0.7,5.6,12.5,8.9,30.5C90.7,31.4,90.8,32.4,91,33.4z"/>
					<path fill="#EB7077" d="M65.3,0h15.4c-2.6,0-5.3,11.2-7.7,24.2C70.7,12,68,0,65.3,0z"/>
					<path fill="#EB7077" d="M73,24.2c-0.2,1.3-0.5,2.6-0.7,4c-3.7,20.2-5.9,27.6-8.5,28.2c-2.9,0-5.7-13.1-8-25.9
						c0-0.2-0.1-0.4-0.1-0.6c0.1-0.6,0.2-1.1,0.3-1.7C59.7,7.9,61.9,0.6,64.4,0h0.9C68,0,70.7,12,73,24.2z"/>
					<path fill="#EB7077" d="M63.8,56.3H47.5c2.8,0,5.6-12.5,8.1-26.5c0,0.2,0.1,0.4,0.1,0.6C58.1,43.3,61,56.3,63.8,56.3z"/>
					<path fill="#F6A2AD" d="M55.7,29.9c-2.6,14-5.4,26.5-8.1,26.5c-3.1-0.7-5.6-12.5-8.9-30.5c-0.1-0.6-0.2-1.1-0.3-1.7
						C40.8,11.2,43.4,0,46,0h0.9C50,0.7,52.4,12.2,55.7,29.9z"/>
					<path fill="#EB7077" d="M30.6,0H46c-2.6,0-5.2,11.2-7.7,24.2C36,12,33.3,0,30.6,0z"/>
					<path fill="#EB7077" d="M38.3,24.2c-0.2,1.3-0.5,2.6-0.7,4c-3.7,20.2-5.9,27.6-8.5,28.2c-2.9,0-1.8-0.5-3.6-8.6
						c-1.8-8.1-3.2-12.9-5.1-15.4c0.3-1.4,0.5-2.8,0.8-4.2C25,7.9,27.2,0.6,29.7,0h0.9C33.3,0,36,12,38.3,24.2z"/>
					<path fill="#EB7077" d="M29.1,56.3H12.8c2.6,0,5.2-11.1,7.7-24c1.8,2.5,3.2,7.3,5.1,15.4C27.4,55.8,26.2,56.3,29.1,56.3z"/>
					<path fill="#F6A2AD" d="M20.5,32.3c-2.5,12.9-5.1,24-7.7,24c-0.3-0.4-2.1,0-3.8-10c-1.5-9.2-4.2-15-8.6-16.1h16.3
						C18.3,30.2,19.4,30.9,20.5,32.3z"/>
				</g>
				<g>
				</g>
			</g>
		</g>
	</g>
</g>
<g>
</g>
<g>
</g>
<g>
</g>
<g>
</g>
<g>
</g>
<g>
</g>
</svg>
